<svg width="86" height="34" viewBox="0 0 86 34" fill="none" xmlns="http://www.w3.org/2000/svg">
<g clip-path="url(#clip0_14724_86140)">
<path d="M0.546875 26.7199H3.48274C4.01478 26.7199 4.47805 26.8234 4.87144 27.0299C5.26483 27.237 5.56744 27.5278 5.77927 27.9035C5.99055 28.2791 6.09674 28.7104 6.09674 29.1967C6.09674 29.683 5.98835 30.1209 5.77212 30.4899C5.55534 30.8589 5.24723 31.1453 4.84723 31.3486C4.44724 31.5524 3.97572 31.6537 3.43377 31.6537H1.60326V30.3131H3.13061C3.39196 30.3131 3.61314 30.2674 3.79525 30.1765C3.97682 30.0856 4.11437 29.9562 4.2068 29.7893C4.29923 29.6224 4.34545 29.4242 4.34545 29.1961C4.34545 28.9681 4.29923 28.7709 4.2068 28.6052C4.11437 28.4399 3.97792 28.3121 3.79745 28.2229C3.61699 28.1337 3.39306 28.0891 3.12566 28.0891H2.23269V33.9075H0.546875V26.7188V26.7199Z" fill="#121417"/>
<path d="M11.2891 33.9114L13.7193 26.7227H15.9559L18.391 33.9114H16.5759L14.8698 28.5H14.8103L13.1042 33.9114H11.2891ZM16.7745 31.0765V32.3725H12.8813V31.0765H16.7745Z" fill="#121417"/>
<path d="M23.837 26.7232H26.7729C27.3115 26.7232 27.777 26.8201 28.1688 27.0135C28.5605 27.2068 28.8615 27.4833 29.0716 27.8424C29.2818 28.2015 29.3863 28.6245 29.3863 29.1108C29.3863 29.5972 29.2796 30.0113 29.0667 30.3622C28.8532 30.713 28.5462 30.9796 28.144 31.1614C27.7424 31.3437 27.2686 31.4346 26.7228 31.4346H24.8384V30.089H26.4202C26.6915 30.089 26.9154 30.0532 27.092 29.9822C27.2686 29.9111 27.4034 29.8031 27.4964 29.6594C27.5888 29.5156 27.6351 29.3328 27.6351 29.1108C27.6351 28.8889 27.5888 28.6939 27.4964 28.5446C27.404 28.3959 27.2675 28.283 27.0871 28.207C26.9066 28.131 26.6827 28.093 26.4153 28.093H25.5223V33.9114H23.8359V26.7227L23.837 26.7232ZM29.6345 33.9119H27.7748L26.034 30.6304H27.8441L29.6345 33.9119Z" fill="#121417"/>
<path d="M34.7578 26.7227H40.7984V28.1029H38.6114V33.9114H36.9449V28.1029H34.7578V26.7227Z" fill="#121417"/>
<path d="M52.4055 33.9114H50.9673L48.0611 29.6913H48.0067V33.9114H46.3203V26.7227H47.7833L50.6597 30.9378H50.7241V26.7227H52.4055V33.9114Z" fill="#121417"/>
<path d="M58.1758 26.7227H63.1501V28.1029H59.8621V29.6269H62.8926V31.0022H59.8621V32.5311H63.1501V33.9114H58.1758V26.7227Z" fill="#121417"/>
<path d="M68.8995 26.7232H71.8354C72.374 26.7232 72.8395 26.8201 73.2313 27.0135C73.623 27.2068 73.924 27.4833 74.1341 27.8424C74.3443 28.2015 74.4488 28.6245 74.4488 29.1108C74.4488 29.5972 74.3421 30.0113 74.1292 30.3622C73.9157 30.713 73.6087 30.9796 73.2065 31.1614C72.8049 31.3437 72.3311 31.4346 71.7853 31.4346H69.9009V30.089H71.4827C71.754 30.089 71.9779 30.0532 72.1545 29.9822C72.3311 29.9111 72.4659 29.8031 72.5589 29.6594C72.6513 29.5156 72.6976 29.3328 72.6976 29.1108C72.6976 28.8889 72.6513 28.6939 72.5589 28.5446C72.4665 28.3959 72.33 28.283 72.1496 28.207C71.9691 28.131 71.7452 28.093 71.4778 28.093H70.5848V33.9114H68.8984V26.7227L68.8995 26.7232ZM74.697 33.9119H72.8373L71.0965 30.6304H72.9066L74.697 33.9119Z" fill="#121417"/>
<path d="M83.7937 28.4045C83.7046 28.2789 83.5786 28.1836 83.4168 28.1192C83.2545 28.0548 83.0581 28.0223 82.8265 28.0223C82.5949 28.0223 82.4166 28.052 82.2609 28.1115C82.1052 28.171 81.988 28.2536 81.9088 28.3599C81.8295 28.4656 81.7899 28.5885 81.7899 28.7273C81.7833 28.936 81.8708 29.1023 82.0529 29.2263C82.2345 29.3502 82.5024 29.4537 82.8562 29.5364L83.4812 29.6752C84.202 29.8338 84.7461 30.0899 85.1131 30.4424C85.4801 30.7949 85.6666 31.2559 85.6738 31.8248C85.6738 32.2748 85.5599 32.6631 85.3315 32.9892C85.1032 33.3152 84.7775 33.5653 84.3544 33.7388C83.9313 33.9123 83.4235 33.9993 82.832 33.9993C82.2405 33.9993 81.703 33.9084 81.2601 33.7261C80.8172 33.5444 80.4749 33.2701 80.2334 32.9044C79.9919 32.5386 79.8648 32.0842 79.8516 31.5417H81.4785C81.495 31.7703 81.5594 31.9631 81.6722 32.12C81.7844 32.2776 81.9385 32.3954 82.1332 32.4753C82.328 32.5546 82.553 32.5943 82.8078 32.5943C83.046 32.5943 83.2507 32.5612 83.4229 32.4951C83.5946 32.429 83.7261 32.3382 83.8174 32.2219C83.9082 32.1063 83.9538 31.9719 83.9538 31.8199C83.9538 31.6844 83.9126 31.5665 83.8301 31.4674C83.7475 31.3682 83.6215 31.2823 83.4532 31.2091C83.2848 31.1364 83.0631 31.0686 82.7885 31.0053L82.0347 30.8263C81.3899 30.6809 80.8975 30.4457 80.5569 30.1213C80.2163 29.7969 80.0463 29.37 80.0463 28.8402C80.0463 28.4034 80.1652 28.0179 80.4034 27.6835C80.6416 27.3492 80.9723 27.0887 81.3954 26.9014C81.8185 26.7147 82.2999 26.6211 82.8386 26.6211C83.3772 26.6211 83.8625 26.7136 84.2746 26.8992C84.6862 27.0848 85.0053 27.3459 85.232 27.6835C85.4586 28.0212 85.5731 28.4117 85.5764 28.855H83.9544C83.9379 28.6799 83.8851 28.529 83.7959 28.4034L83.7937 28.4045Z" fill="#121417"/>
<path d="M13.7616 17.7738C12.637 16.5175 12.0296 15.7998 10.3443 15.7998H5.04588C4.17876 15.7998 3.47616 15.0959 3.47616 14.2285V12.9264H3.47451C3.47451 12.7887 3.47451 12.6444 3.47451 12.493V8.01955C1.59998 8.01955 0.0737267 6.5341 0.0033012 4.67578L0 15.7998C0 17.7204 1.55541 19.2774 3.47396 19.2774H13.0909C13.87 19.2774 14.2815 18.3543 13.7616 17.7738Z" fill="#121417"/>
<path d="M20.8426 4.60547C20.8085 6.49629 19.2674 8.01863 17.3703 8.01863H17.3697V13.2158C17.3697 13.6999 16.8003 13.9279 16.4927 13.5672L14.923 11.7226C14.2991 10.9581 13.2025 10.8695 12.4741 11.5243C11.7456 12.1792 11.6609 13.3298 12.2854 14.0943L15.9695 18.4228C17.6575 20.4062 20.7788 18.6602 20.8432 16.0021C20.8437 15.9707 20.8443 15.9394 20.8443 15.908V4.60547H20.8426Z" fill="#121417"/>
<path d="M3.47396 8.01931C1.55541 8.01931 0 6.46226 0 4.54171V3.45723C0 1.54823 1.54661 0 3.4536 0H6.94737V4.54171C6.94737 6.46226 5.39195 8.01876 3.47396 8.01876" fill="#FF4800"/>
<path d="M10.4232 8.01931C8.50463 8.01931 6.94922 6.46226 6.94922 4.54226V0H13.8966V4.54171C13.8966 6.46226 12.3412 8.01876 10.4226 8.01876" fill="#FFA300"/>
<path d="M17.3685 8.01931C15.4499 8.01931 13.8945 6.46226 13.8945 4.54226V0H17.3883C19.2958 0 20.8419 1.54823 20.8419 3.45723V4.54171C20.8419 6.46226 19.2865 8.01876 17.3679 8.01876" fill="#FF4800"/>
<path d="M41.8678 14.8161H39.5388V17.3931C39.5388 18.4341 38.6959 19.2785 37.6554 19.2785C36.615 19.2785 35.7721 18.4347 35.7721 17.3931V14.8161H32.1171V17.3931C32.1171 18.4341 31.2742 19.2785 30.2338 19.2785C29.1934 19.2785 28.3505 18.4347 28.3505 17.3931V14.8161H26.0215C25.0795 14.8161 24.3164 14.0521 24.3164 13.1092C24.3164 12.1663 25.0795 11.4023 26.0215 11.4023H41.8683C42.8103 11.4023 43.5734 12.1663 43.5734 13.1092C43.5734 14.0521 42.8103 14.8161 41.8683 14.8161H41.8678Z" fill="#121417"/>
<path d="M39.006 10.4642C38.7254 10.4642 38.4838 10.261 38.4387 9.98393C37.6701 5.25496 34.8195 3.4363 32.1835 3.41427H26.6513C25.7654 3.41427 25.0469 2.65034 25.0469 1.70741C25.0469 0.764478 25.7649 0 26.6513 0H31.882C37.1232 0 41.6134 4.3616 41.922 9.85945C41.9402 10.1883 41.6766 10.4637 41.3476 10.4637H39.006V10.4642Z" fill="#121417"/>
<path d="M32.9705 5.37891H26.7049C26.0292 5.37891 25.4157 5.79034 25.1759 6.42208C24.7131 7.6415 25.6001 8.79262 26.756 8.79262H35.9587C36.1864 8.79262 36.3543 8.57892 36.3003 8.35696C35.8981 6.69691 34.4682 5.40039 32.9705 5.37891Z" fill="#121417"/>
<path d="M49.0869 4.05703H52.6341V14.7768H49.0869V4.05703ZM47.6217 18.283H54.0992C55.3724 18.283 56.4046 17.2498 56.4046 15.9753V2.85854C56.4046 1.58404 55.3724 0.550781 54.0992 0.550781H47.6217C46.3491 0.550781 45.3164 1.58404 45.3164 2.85854V15.9758C45.3164 17.2498 46.3486 18.2836 47.6217 18.2836" fill="#121417"/>
<path d="M63.2707 7.06944H61.9541V1.9329C61.9541 0.921669 61.1349 0.101562 60.1247 0.101562H60.013C59.0028 0.101562 58.1836 0.921669 58.1836 1.9329V17.3425C58.1836 18.3538 59.0028 19.1739 60.013 19.1739H60.1247C61.1349 19.1739 61.9541 18.3538 61.9541 17.3425V10.7321H63.2707C64.2809 10.7321 65.1001 9.912 65.1001 8.90077C65.1001 7.88955 64.2809 7.06944 63.2707 7.06944Z" fill="#121417"/>
<path d="M83.8218 12.3635C82.8485 12.3635 82.059 11.5737 82.059 10.5994V1.86625C82.059 0.891927 82.8479 0.101562 83.8218 0.101562C84.7956 0.101562 85.5841 0.891376 85.5841 1.86625V10.5988C85.5841 11.5731 84.7951 12.363 83.8218 12.363M83.808 18.8808L76.6378 16.2707C74.7628 17.8878 72.2379 18.8241 69.5276 19.0929C68.639 19.181 67.8704 18.4716 67.8704 17.5783V17.0804C67.8704 16.3071 68.4525 15.6572 69.2201 15.574C71.8016 15.2942 73.9749 14.2059 75.0714 12.4874C75.5688 11.7081 76.5212 11.3484 77.4279 11.5258L77.6887 11.5764C78.6219 11.7588 79.1594 12.7457 78.8073 13.6297L84.9415 15.5872C85.7651 15.8499 86.2031 16.7482 85.9037 17.5606L85.7491 17.9798C85.4597 18.7635 84.5921 19.1672 83.8075 18.8814L83.808 18.8808ZM66.8443 10.9623C66.8443 10.1786 67.4154 9.49506 68.1923 9.39812C69.702 9.21086 70.715 8.70139 71.3284 7.80693H68.3722C67.5282 7.80693 66.8438 7.12176 66.8438 6.27687C66.8438 5.43198 67.5276 4.74681 68.3722 4.74681H72.1312V3.45194H68.4052C67.5431 3.45194 66.8438 2.7519 66.8438 1.88883C66.8438 1.02577 67.5431 0.325729 68.4052 0.325729H73.2893C74.5719 0.325729 75.6112 1.3667 75.6112 2.65001V4.43507H77.2623V1.934C77.2623 0.97179 78.0414 0.192441 79.0026 0.192441C79.9638 0.192441 80.7423 0.972341 80.7423 1.934V9.01368C80.7423 9.97589 79.9633 10.7558 79.0026 10.7558C78.042 10.7558 77.2623 9.97589 77.2623 9.01368V7.87467H75.0087C73.9628 10.5101 71.6673 12.0821 68.6704 12.5243C67.7109 12.6659 66.8438 11.9339 66.8438 10.9634L66.8443 10.9623Z" fill="#121417"/>
</g>
<defs>
<clipPath id="clip0_14724_86140">
<rect width="86" height="34" fill="white"/>
</clipPath>
</defs>
</svg>
